PathFileType	4	(X/Y/Z)	..\data\2014014\dynamic\2014014_C4_04.trc
DataRate	CameraRate	NumFrames	NumMarkers	Units	OrigDataRate	OrigDataStartFrame	OrigNumFrames
100.000000	100.000000	4	48	mm	100.000000	155	178
Frame#	Time	L_IAS			L_IPS			R_IPS			R_IAS			L_FTC			L_FLE			L_FME			L_FAX			L_TTC			L_FAL			L_TAM			L_FCC			L_FM1			L_FM2			L_FM5			R_FTC			R_FLE			R_FME			R_FAX			R_TTC			R_FAL			R_TAM			R_FCC			R_FM1			R_FM2			R_FM5			CV7			TV10			SXS			SJN			L_SAA			L_SAE			L_HLE			L_HME			L_UOA			L_RSP			L_UHE			L_HM2			L_HM5			R_SAA			R_SAE			R_HLE			R_HME			R_UOA			R_RSP			R_UHE			R_HM2			R_HM5			
		X1	Y1	Z1	X2	Y2	Z2	X3	Y3	Z3	X4	Y4	Z4	X5	Y5	Z5	X6	Y6	Z6	X7	Y7	Z7	X8	Y8	Z8	X9	Y9	Z9	X10	Y10	Z10	X11	Y11	Z11	X12	Y12	Z12	X13	Y13	Z13	X14	Y14	Z14	X15	Y15	Z15	X16	Y16	Z16	X17	Y17	Z17	X18	Y18	Z18	X19	Y19	Z19	X20	Y20	Z20	X21	Y21	Z21	X22	Y22	Z22	X23	Y23	Z23	X24	Y24	Z24	X25	Y25	Z25	X26	Y26	Z26	X27	Y27	Z27	X28	Y28	Z28	X29	Y29	Z29	X30	Y30	Z30	X31	Y31	Z31	X32	Y32	Z32	X33	Y33	Z33	X34	Y34	Z34	X35	Y35	Z35	X36	Y36	Z36	X37	Y37	Z37	X38	Y38	Z38	X39	Y39	Z39	X40	Y40	Z40	X41	Y41	Z41	X42	Y42	Z42	X43	Y43	Z43	X44	Y44	Z44	X45	Y45	Z45	X46	Y46	Z46	X47	Y47	Z47	X48	Y48	Z48	

156	1.55	1627.313110351563	999.1086425781252	-119.7296566040048	1419.134521484375	1017.186157226563	-28.94627714519412	1418.89111328125	1012.195495605469	68.94627714519412	1623.510986328125	1002.564880371094	159.7296566040048	1534.831909179688	898.3809814453127	-168.8364664171059	1485.920532226563	497.7224731445314	-132.8068082918402	1491.04541015625	494.323944091797	4.73616952572034	1459.290893554688	439.4219055175782	-127.5034208841393	1530.007690429688	421.0050659179689	-68.54266881243612	1410.610107421875	68.2064666748047	-119.3286701318263	1439.36328125	99.4230651855469	-17.89666597850206	1360.478149414063	24.95502471923829	-63.35014095580774	1561.649658203125	20.61897659301758	-34.67283560363096	1576.045288085938	36.30979919433594	-75.85478284948589	1518.579223632813	16.96067237854004	-136.6788472364645	1572.805541992188	902.6638183593752	201.77977018891	1701.107177734375	508.7842712402345	168.1761551397474	1739.404418945313	516.0623168945314	39.89448362637252	1671.824340820313	458.2132873535157	167.9111784980278	1744.136840820313	442.7714233398439	108.8162272066081	1550.121337890625	110.0374069213867	159.7178475624646	1602.466186523438	131.0770263671875	58.05492402872793	1513.716064453125	81.04140472412111	103.5203760469626	1710.472045898438	37.75196075439454	74.31989194537282	1699.700805664063	56.28625488281251	116.2531535677032	1652.609619140625	42.70441818237305	178.1868656505937	1478.462646484375	1540.056274414063	22.33197663849248	1378.808349609375	1298.251831054688	22.33197663849248	1649.555297851563	1260.645141601563	22.33197663849248	1601.504760742188	1443.891845703125	22.23227489079067	1460.723876953125	1467.540161132813	-219.6455385149378	1509.975341796875	1462.164306640625	-176.1371861577316	1553.132446289063	1127.609008789063	-258.8717543254914	1504.84521484375	1106.8671875	-174.535390332801	1515.30810546875	1096.1904296875	-210.2361499973812	1710.447143554688	910.365661621094	-239.5967179865834	1649.745849609375	887.9468383789065	-265.4190523397495	1766.33984375	840.952087402344	-244.7565623451693	1672.146606445313	807.1147460937502	-246.8581665756566	1454.072387695313	1447.604248046875	259.6455385149378	1502.583740234375	1441.728271484375	216.1373355492392	1486.595092773438	1099.434448242188	304.6079114146845	1472.715454101563	1087.69677734375	207.9388096802291	1449.386474609375	1079.504638671875	248.860189315611	1597.884643554688	855.3121337890627	279.4189228109762	1526.676391601563	852.9924316406252	306.295032088454	1632.383666992188	764.5875854492189	285.0291244398524	1524.808471679688	753.8442993164064	287.1250341336798	
157	1.56	1637.632202148438	997.476501464844	-119.7296566040048	1429.4033203125	1016.1533203125	-28.94627714519412	1429.103515625	1011.117248535156	68.94627714519412	1633.80029296875	1001.701171875	159.7296566040048	1544.119506835938	897.1812744140627	-168.8364664171059	1489.79248046875	497.5619201660157	-132.8068082918402	1495.0205078125	494.1242675781251	4.73616952572034	1462.482299804688	439.6419372558595	-127.5034208841393	1533.015991210938	420.2520141601564	-68.54266881243612	1410.691162109375	68.41415405273439	-119.3286701318263	1440.06787109375	99.58604431152347	-17.89666597850206	1360.526733398438	25.46138191223145	-63.35014095580774	1561.823852539063	20.55013275146485	-34.67283560363096	1576.179809570313	36.17613220214844	-75.85478284948589	1518.511596679688	16.87154388427735	-136.6788472364645	1583.803466796875	901.9943847656252	201.77977018891	1712.136840820313	507.5317382812501	168.1761551397474	1749.293212890625	515.0900268554689	39.89448362637252	1684.4541015625	455.6761779785157	167.9111784980278	1758.128540039063	443.3161010742189	108.8162272066081	1585.644775390625	100.1167297363282	159.7178475624646	1637.60302734375	124.1173400878907	58.05492402872793	1552.301513671875	68.80214691162111	103.5203760469626	1750.934692382813	37.61409759521485	74.31989194537282	1738.102294921875	55.31310272216798	116.2531535677032	1691.124877929688	39.21732711791993	178.1868656505937	1488.776489257813	1538.907958984375	22.33197663849248	1389.132568359375	1297.140502929688	22.33197663849248	1659.839111328125	1259.4501953125	22.33197663849248	1611.7177734375	1442.607177734375	22.23227489079067	1471.799438476563	1466.78369140625	-219.6455385149378	1521.14453125	1461.528564453125	-176.1371861577316	1566.567260742188	1127.5810546875	-258.8717543254914	1518.021850585938	1106.119873046875	-174.535390332801	1528.739379882813	1095.661743164063	-210.2361499973812	1726.742797851563	912.6643066406252	-239.5967179865834	1666.743896484375	889.2094726562502	-265.4190523397495	1783.5498046875	844.0757446289065	-244.7565623451693	1690.476196289063	808.755065917969	-246.8581665756566	1463.1591796875	1445.82177734375	259.6455385149378	1511.793212890625	1439.810424804688	216.1373355492392	1494.290649414063	1097.61865234375	304.6079114146845	1481.035034179688	1086.108276367188	207.9388096802291	1457.28515625	1077.819946289063	248.860189315611	1605.83935546875	853.623718261719	279.4189228109762	1533.8125	851.0449218750002	306.295032088454	1640.103637695313	762.8572998046876	285.0291244398524	1531.975219726563	751.8806762695314	287.1250341336798	
158	1.57	1648.0322265625	995.7622680664065	-119.7296566040048	1439.746459960938	1015.025390625	-28.94627714519412	1439.396240234375	1009.860595703125	68.94627714519412	1644.142333984375	1000.63720703125	159.7296566040048	1553.523193359375	895.9514770507815	-168.8364664171059	1493.843627929688	497.3958435058595	-132.8068082918402	1499.214477539063	493.8931579589845	4.73616952572034	1465.849243164063	439.8697204589845	-127.5034208841393	1536.151489257813	419.4987182617189	-68.54266881243612	1410.785522460938	68.65895843505861	-119.3286701318263	1440.824584960938	99.76359558105472	-17.89666597850206	1360.65576171875	25.98105430603028	-63.35014095580774	1561.986450195313	20.47300338745118	-34.67283560363096	1576.3056640625	36.01044464111329	-75.85478284948589	1518.423828125	16.78761100769043	-136.6788472364645	1594.666625976563	900.998718261719	201.77977018891	1722.398071289063	505.902313232422	168.1761551397474	1758.701416015625	513.7201538085939	39.89448362637252	1696.558959960938	452.9269409179689	167.9111784980278	1771.455932617188	443.6822509765626	108.8162272066081	1621.34765625	91.33824920654298	159.7178475624646	1672.805541992188	118.2937850952149	58.05492402872793	1591.253540039063	57.84858322143556	103.5203760469626	1790.96142578125	38.84909820556641	74.31989194537282	1776.115966796875	55.60351562500001	116.2531535677032	1729.35400390625	36.99539184570313	178.1868656505937	1499.135864257813	1537.616455078125	22.33197663849248	1399.51220703125	1295.891235351563	22.33197663849248	1670.20361328125	1258.120849609375	22.33197663849248	1621.9931640625	1441.173828125	22.23227489079067	1482.946044921875	1465.856811523438	-219.6455385149378	1532.389282226563	1460.70849609375	-176.1371861577316	1579.835571289063	1127.375854492188	-258.8717543254914	1531.0625	1105.21484375	-174.535390332801	1542.068725585938	1094.95751953125	-210.2361499973812	1742.738403320313	914.7315063476565	-239.5967179865834	1683.43603515625	890.2939453125002	-265.4190523397495	1800.433227539063	846.9837036132815	-244.7565623451693	1708.46435546875	810.223571777344	-246.8581665756566	1472.328979492188	1443.89111328125	259.6455385149378	1521.059204101563	1437.763427734375	216.1373355492392	1502.144165039063	1095.669067382813	304.6079114146845	1489.486572265625	1084.378662109375	207.9388096802291	1465.340087890625	1075.997680664063	248.860189315611	1613.87548828125	851.7565917968752	279.4189228109762	1541.148559570313	848.9791259765627	306.295032088454	1647.899658203125	760.9376831054689	285.0291244398524	1539.322631835938	749.8232421875001	287.1250341336798	
159	1.58	1658.502319335938	993.989440917969	-119.7296566040048	1450.16796875	1013.803955078125	-28.94627714519412	1449.777099609375	1008.437255859375	68.94627714519412	1654.552368164063	999.3814697265627	159.7296566040048	1563.044555664063	894.693298339844	-168.8364664171059	1498.10888671875	497.2247314453126	-132.8068082918402	1503.685546875	493.6275024414064	4.73616952572034	1469.424682617188	440.1041564941407	-127.5034208841393	1539.466552734375	418.7469177246095	-68.54266881243612	1410.904174804688	68.95740509033205	-119.3286701318263	1441.643676757813	99.96989440917972	-17.89666597850206	1360.87109375	26.53142547607423	-63.35014095580774	1562.134155273438	20.39605712890625	-34.67283560363096	1576.417358398438	35.82059478759766	-75.85478284948589	1518.314575195313	16.7197322845459	-136.6788472364645	1605.38818359375	899.6843261718752	201.77977018891	1731.9638671875	503.9619140625001	168.1761551397474	1767.724609375	512.0615844726564	39.89448362637252	1708.2099609375	450.033905029297	167.9111784980278	1784.166137695313	443.9169311523439	108.8162272066081	1656.908447265625	83.84127807617189	159.7178475624646	1707.754760742188	113.6953659057617	58.05492402872793	1630.181274414063	48.31572341918947	103.5203760469626	1830.203491210938	41.46861267089844	74.31989194537282	1813.441650390625	57.20349121093751	116.2531535677032	1767.00830078125	36.12176895141602	178.1868656505937	1509.542724609375	1536.199584960938	22.33197663849248	1409.948486328125	1294.518920898438	22.33197663849248	1680.64111328125	1256.6748046875	22.33197663849248	1632.333618164063	1439.612060546875	22.23227489079067	1494.156616210938	1464.776245117188	-219.6455385149378	1543.702026367188	1459.720458984375	-176.1371861577316	1592.93603515625	1127.006958007813	-258.8717543254914	1543.96142578125	1104.167846679688	-174.535390332801	1555.307373046875	1094.089599609375	-210.2361499973812	1758.407958984375	916.5606689453127	-239.5967179865834	1699.803955078125	891.2017822265627	-265.4190523397495	1816.971435546875	849.6610107421877	-244.7565623451693	1726.081420898438	811.5181884765627	-246.8581665756566	1481.6064453125	1441.83447265625	259.6455385149378	1530.395141601563	1435.618041992188	216.1373355492392	1510.156372070313	1093.6064453125	304.6079114146845	1498.084594726563	1082.533813476563	207.9388096802291	1473.554321289063	1074.060424804688	248.860189315611	1621.996826171875	849.730651855469	279.4189228109762	1548.6923828125	846.8182373046877	306.295032088454	1655.777465820313	758.8521728515626	285.0291244398524	1546.8564453125	747.6929931640626	287.1250341336798	
